<svg width="40" height="40" viewBox="0 0 40 40" fill="none" xmlns="http://www.w3.org/2000/svg">
<g id="dummy logo">
<rect id="bg" x="0.5" y="0.5" width="38.6851" height="38.6851" rx="7.5" fill="#004852" stroke="#EDF6F9"/>
<g id="dummy">
<path id="Vector" d="M15.8559 12.492C15.0536 13.3091 15.0536 14.6314 15.8707 15.4486L17.6536 17.2314C19.3324 18.9102 19.3324 21.6439 17.6536 23.3227L14.385 20.0542C13.5456 19.2148 13.1222 18.1079 13.1222 17.0085C13.1222 15.9091 13.5456 14.8023 14.385 13.9629L15.8336 12.5143C15.841 12.5069 15.8484 12.4994 15.8559 12.492Z" fill="#004852" stroke="#EDF6F9" stroke-miterlimit="10"/>
<g id="Vector_2">
<path d="M17.2821 16.859L15.8707 15.4476C15.0536 14.6305 15.0461 13.3156 15.8558 12.4911C16.6581 11.7037 17.9358 11.7185 18.7307 12.5134C19.1318 12.9145 19.3324 13.4419 19.3324 13.9619C19.3324 14.4819 19.1318 15.0093 18.7307 15.4105L18.3964 15.7448" fill="#004852"/>
<path d="M17.2821 16.859L15.8707 15.4476C15.0536 14.6305 15.0461 13.3156 15.8558 12.4911C16.6581 11.7037 17.9358 11.7185 18.7307 12.5134C19.1318 12.9145 19.3324 13.4419 19.3324 13.9619C19.3324 14.4819 19.1318 15.0093 18.7307 15.4105L18.3964 15.7448" stroke="#EDF6F9" stroke-miterlimit="10"/>
</g>
<path id="Vector_3" d="M24.287 27.0882C25.0893 26.271 25.0893 24.9488 24.2721 24.1316L22.4893 22.3488C20.8105 20.67 20.8105 17.9363 22.4893 16.2574L25.7578 19.526C26.5973 20.3654 27.0207 21.4722 27.0207 22.5716C27.0207 23.6711 26.5973 24.7779 25.7578 25.6173L24.3093 27.0659C24.2944 27.0807 24.287 27.0882 24.287 27.0882Z" fill="#004852" stroke="#EDF6F9" stroke-miterlimit="10"/>
<g id="Vector_4">
<path d="M22.8529 22.7279L24.2643 24.1393C25.0815 24.9564 25.0889 26.2713 24.2792 27.0958C23.4769 27.8833 22.1992 27.8684 21.4044 27.0736C21.0032 26.6724 20.8027 26.145 20.8027 25.625C20.8027 25.105 21.0032 24.5776 21.4044 24.1764L21.7461 23.8347" fill="#004852"/>
<path d="M22.8529 22.7279L24.2643 24.1393C25.0815 24.9564 25.0889 26.2713 24.2792 27.0958C23.4769 27.8833 22.1992 27.8684 21.4044 27.0736C21.0032 26.6724 20.8027 26.145 20.8027 25.625C20.8027 25.105 21.0032 24.5776 21.4044 24.1764L21.7461 23.8347" stroke="#EDF6F9" stroke-miterlimit="10"/>
</g>
</g>
<g id="dummy_2">
<path id="Vector_5" d="M15.8559 12.492C15.0536 13.3091 15.0536 14.6314 15.8707 15.4486L17.6536 17.2314C19.3324 18.9102 19.3324 21.6439 17.6536 23.3227L14.385 20.0542C13.5456 19.2148 13.1222 18.1079 13.1222 17.0085C13.1222 15.9091 13.5456 14.8023 14.385 13.9629L15.8336 12.5143C15.841 12.5069 15.8484 12.4994 15.8559 12.492Z" fill="#004852" stroke="#EDF6F9" stroke-miterlimit="10"/>
<g id="Vector_6">
<path d="M17.2821 16.859L15.8707 15.4476C15.0536 14.6305 15.0461 13.3156 15.8558 12.4911C16.6581 11.7037 17.9358 11.7185 18.7307 12.5134C19.1318 12.9145 19.3324 13.4419 19.3324 13.9619C19.3324 14.4819 19.1318 15.0093 18.7307 15.4105L18.3964 15.7448" fill="#004852"/>
<path d="M17.2821 16.859L15.8707 15.4476C15.0536 14.6305 15.0461 13.3156 15.8558 12.4911C16.6581 11.7037 17.9358 11.7185 18.7307 12.5134C19.1318 12.9145 19.3324 13.4419 19.3324 13.9619C19.3324 14.4819 19.1318 15.0093 18.7307 15.4105L18.3964 15.7448" stroke="#EDF6F9" stroke-miterlimit="10"/>
</g>
<path id="Vector_7" d="M24.287 27.0882C25.0893 26.271 25.0893 24.9488 24.2721 24.1316L22.4893 22.3488C20.8105 20.67 20.8105 17.9363 22.4893 16.2574L25.7578 19.526C26.5973 20.3654 27.0207 21.4722 27.0207 22.5716C27.0207 23.6711 26.5973 24.7779 25.7578 25.6173L24.3093 27.0659C24.2944 27.0807 24.287 27.0882 24.287 27.0882Z" fill="#004852" stroke="#EDF6F9" stroke-miterlimit="10"/>
<g id="Vector_8">
<path d="M22.8529 22.7279L24.2643 24.1393C25.0815 24.9564 25.0889 26.2713 24.2792 27.0958C23.4769 27.8833 22.1992 27.8684 21.4044 27.0736C21.0032 26.6724 20.8027 26.145 20.8027 25.625C20.8027 25.105 21.0032 24.5776 21.4044 24.1764L21.7461 23.8347" fill="#004852"/>
<path d="M22.8529 22.7279L24.2643 24.1393C25.0815 24.9564 25.0889 26.2713 24.2792 27.0958C23.4769 27.8833 22.1992 27.8684 21.4044 27.0736C21.0032 26.6724 20.8027 26.145 20.8027 25.625C20.8027 25.105 21.0032 24.5776 21.4044 24.1764L21.7461 23.8347" stroke="#EDF6F9" stroke-miterlimit="10"/>
</g>
</g>
</g>
</svg>
